<?xml version="1.0" encoding="UTF-8"?>
<svg width="550" height="300" xmlns="http://www.w3.org/2000/svg" version="1.1">
  <g id="E-group">
    <rect x="0" y="0" width="50" height="50" fill="white" stroke="#ddd" stroke-width="2"/>
    <text x="25.0" y="29.0" font-family="Arial" font-size="14" text-anchor="middle" dominant-baseline="middle" fill="#555">E</text>
    <rect x="50" y="0" width="50" height="50" fill="white" stroke="#ddd" stroke-width="2"/>
    <text x="75.0" y="29.0" font-family="Arial" font-size="14" text-anchor="middle" dominant-baseline="middle" fill="#555">E</text>
    <rect x="150" y="0" width="50" height="50" fill="white" stroke="#ddd" stroke-width="2"/>
    <text x="175.0" y="29.0" font-family="Arial" font-size="14" text-anchor="middle" dominant-baseline="middle" fill="#555">E</text>
    <rect x="200" y="0" width="50" height="50" fill="white" stroke="#ddd" stroke-width="2"/>
    <text x="225.0" y="29.0" font-family="Arial" font-size="14" text-anchor="middle" dominant-baseline="middle" fill="#555">E</text>
    <rect x="250" y="0" width="50" height="50" fill="white" stroke="#ddd" stroke-width="2"/>
    <text x="275.0" y="29.0" font-family="Arial" font-size="14" text-anchor="middle" dominant-baseline="middle" fill="#555">E</text>
    <rect x="300" y="0" width="50" height="50" fill="white" stroke="#ddd" stroke-width="2"/>
    <text x="325.0" y="29.0" font-family="Arial" font-size="14" text-anchor="middle" dominant-baseline="middle" fill="#555">E</text>
    <rect x="350" y="0" width="50" height="50" fill="white" stroke="#ddd" stroke-width="2"/>
    <text x="375.0" y="29.0" font-family="Arial" font-size="14" text-anchor="middle" dominant-baseline="middle" fill="#555">E</text>
    <rect x="400" y="0" width="50" height="50" fill="white" stroke="#ddd" stroke-width="2"/>
    <text x="425.0" y="29.0" font-family="Arial" font-size="14" text-anchor="middle" dominant-baseline="middle" fill="#555">E</text>
    <rect x="450" y="0" width="50" height="50" fill="white" stroke="#ddd" stroke-width="2"/>
    <text x="475.0" y="29.0" font-family="Arial" font-size="14" text-anchor="middle" dominant-baseline="middle" fill="#555">E</text>
    <rect x="500" y="0" width="50" height="50" fill="white" stroke="#ddd" stroke-width="2"/>
    <text x="525.0" y="29.0" font-family="Arial" font-size="14" text-anchor="middle" dominant-baseline="middle" fill="#555">E</text>
    <rect x="0" y="200" width="50" height="50" fill="white" stroke="#ddd" stroke-width="2"/>
    <text x="25.0" y="229.0" font-family="Arial" font-size="14" text-anchor="middle" dominant-baseline="middle" fill="#555">E</text>
    <rect x="500" y="200" width="50" height="50" fill="white" stroke="#ddd" stroke-width="2"/>
    <text x="525.0" y="229.0" font-family="Arial" font-size="14" text-anchor="middle" dominant-baseline="middle" fill="#555">E</text>
    <rect x="0" y="250" width="50" height="50" fill="white" stroke="#ddd" stroke-width="2"/>
    <text x="25.0" y="279.0" font-family="Arial" font-size="14" text-anchor="middle" dominant-baseline="middle" fill="#555">E</text>
    <rect x="500" y="250" width="50" height="50" fill="white" stroke="#ddd" stroke-width="2"/>
    <text x="525.0" y="279.0" font-family="Arial" font-size="14" text-anchor="middle" dominant-baseline="middle" fill="#555">E</text>
  </g>
  <g id="S-group">
    <rect x="50" y="100" width="50" height="50" fill="#E6E6FA" stroke="#333" stroke-width="2"/>
    <text x="75.0" y="129.0" font-family="Arial" font-size="14" text-anchor="middle" dominant-baseline="middle" fill="#555">S</text>
    <rect x="100" y="100" width="50" height="50" fill="#E6E6FA" stroke="#333" stroke-width="2"/>
    <text x="125.0" y="129.0" font-family="Arial" font-size="14" text-anchor="middle" dominant-baseline="middle" fill="#555">S</text>
    <rect x="250" y="100" width="50" height="50" fill="#E6E6FA" stroke="#333" stroke-width="2"/>
    <text x="275.0" y="129.0" font-family="Arial" font-size="14" text-anchor="middle" dominant-baseline="middle" fill="#555">S</text>
    <rect x="300" y="100" width="50" height="50" fill="#E6E6FA" stroke="#333" stroke-width="2"/>
    <text x="325.0" y="129.0" font-family="Arial" font-size="14" text-anchor="middle" dominant-baseline="middle" fill="#555">S</text>
    <rect x="350" y="100" width="50" height="50" fill="#E6E6FA" stroke="#333" stroke-width="2"/>
    <text x="375.0" y="129.0" font-family="Arial" font-size="14" text-anchor="middle" dominant-baseline="middle" fill="#555">S</text>
    <rect x="450" y="100" width="50" height="50" fill="#E6E6FA" stroke="#333" stroke-width="2"/>
    <text x="475.0" y="129.0" font-family="Arial" font-size="14" text-anchor="middle" dominant-baseline="middle" fill="#555">S</text>
    <rect x="50" y="150" width="50" height="50" fill="#E6E6FA" stroke="#333" stroke-width="2"/>
    <text x="75.0" y="179.0" font-family="Arial" font-size="14" text-anchor="middle" dominant-baseline="middle" fill="#555">S</text>
    <rect x="100" y="150" width="50" height="50" fill="#E6E6FA" stroke="#333" stroke-width="2"/>
    <text x="125.0" y="179.0" font-family="Arial" font-size="14" text-anchor="middle" dominant-baseline="middle" fill="#555">S</text>
    <rect x="150" y="150" width="50" height="50" fill="#E6E6FA" stroke="#333" stroke-width="2"/>
    <text x="175.0" y="179.0" font-family="Arial" font-size="14" text-anchor="middle" dominant-baseline="middle" fill="#555">S</text>
    <rect x="300" y="150" width="50" height="50" fill="#E6E6FA" stroke="#333" stroke-width="2"/>
    <text x="325.0" y="179.0" font-family="Arial" font-size="14" text-anchor="middle" dominant-baseline="middle" fill="#555">S</text>
    <rect x="450" y="150" width="50" height="50" fill="#E6E6FA" stroke="#333" stroke-width="2"/>
    <text x="475.0" y="179.0" font-family="Arial" font-size="14" text-anchor="middle" dominant-baseline="middle" fill="#555">S</text>
    <rect x="50" y="200" width="50" height="50" fill="#E6E6FA" stroke="#333" stroke-width="2"/>
    <text x="75.0" y="229.0" font-family="Arial" font-size="14" text-anchor="middle" dominant-baseline="middle" fill="#555">S</text>
    <rect x="100" y="200" width="50" height="50" fill="#E6E6FA" stroke="#333" stroke-width="2"/>
    <text x="125.0" y="229.0" font-family="Arial" font-size="14" text-anchor="middle" dominant-baseline="middle" fill="#555">S</text>
    <rect x="150" y="200" width="50" height="50" fill="#E6E6FA" stroke="#333" stroke-width="2"/>
    <text x="175.0" y="229.0" font-family="Arial" font-size="14" text-anchor="middle" dominant-baseline="middle" fill="#555">S</text>
    <rect x="200" y="200" width="50" height="50" fill="#E6E6FA" stroke="#333" stroke-width="2"/>
    <text x="225.0" y="229.0" font-family="Arial" font-size="14" text-anchor="middle" dominant-baseline="middle" fill="#555">S</text>
    <rect x="350" y="200" width="50" height="50" fill="#E6E6FA" stroke="#333" stroke-width="2"/>
    <text x="375.0" y="229.0" font-family="Arial" font-size="14" text-anchor="middle" dominant-baseline="middle" fill="#555">S</text>
    <rect x="400" y="200" width="50" height="50" fill="#E6E6FA" stroke="#333" stroke-width="2"/>
    <text x="425.0" y="229.0" font-family="Arial" font-size="14" text-anchor="middle" dominant-baseline="middle" fill="#555">S</text>
    <rect x="450" y="200" width="50" height="50" fill="#E6E6FA" stroke="#333" stroke-width="2"/>
    <text x="475.0" y="229.0" font-family="Arial" font-size="14" text-anchor="middle" dominant-baseline="middle" fill="#555">S</text>
    <rect x="150" y="250" width="50" height="50" fill="#E6E6FA" stroke="#333" stroke-width="2"/>
    <text x="175.0" y="279.0" font-family="Arial" font-size="14" text-anchor="middle" dominant-baseline="middle" fill="#555">S</text>
    <rect x="200" y="250" width="50" height="50" fill="#E6E6FA" stroke="#333" stroke-width="2"/>
    <text x="225.0" y="279.0" font-family="Arial" font-size="14" text-anchor="middle" dominant-baseline="middle" fill="#555">S</text>
    <rect x="250" y="250" width="50" height="50" fill="#E6E6FA" stroke="#333" stroke-width="2"/>
    <text x="275.0" y="279.0" font-family="Arial" font-size="14" text-anchor="middle" dominant-baseline="middle" fill="#555">S</text>
    <rect x="350" y="250" width="50" height="50" fill="#E6E6FA" stroke="#333" stroke-width="2"/>
    <text x="375.0" y="279.0" font-family="Arial" font-size="14" text-anchor="middle" dominant-baseline="middle" fill="#555">S</text>
  </g>
  <g id="W-group">
    <rect x="0" y="50" width="50" height="50" fill="#89CFF0" stroke="#333" stroke-width="2"/>
    <text x="25.0" y="79.0" font-family="Arial" font-size="14" text-anchor="middle" dominant-baseline="middle" fill="#555">W</text>
    <rect x="50" y="50" width="50" height="50" fill="#89CFF0" stroke="#333" stroke-width="2"/>
    <text x="75.0" y="79.0" font-family="Arial" font-size="14" text-anchor="middle" dominant-baseline="middle" fill="#555">W</text>
    <rect x="200" y="50" width="50" height="50" fill="#89CFF0" stroke="#333" stroke-width="2"/>
    <text x="225.0" y="79.0" font-family="Arial" font-size="14" text-anchor="middle" dominant-baseline="middle" fill="#555">W</text>
    <rect x="250" y="50" width="50" height="50" fill="#89CFF0" stroke="#333" stroke-width="2"/>
    <text x="275.0" y="79.0" font-family="Arial" font-size="14" text-anchor="middle" dominant-baseline="middle" fill="#555">W</text>
    <rect x="300" y="50" width="50" height="50" fill="#89CFF0" stroke="#333" stroke-width="2"/>
    <text x="325.0" y="79.0" font-family="Arial" font-size="14" text-anchor="middle" dominant-baseline="middle" fill="#555">W</text>
    <rect x="350" y="50" width="50" height="50" fill="#89CFF0" stroke="#333" stroke-width="2"/>
    <text x="375.0" y="79.0" font-family="Arial" font-size="14" text-anchor="middle" dominant-baseline="middle" fill="#555">W</text>
    <rect x="400" y="50" width="50" height="50" fill="#89CFF0" stroke="#333" stroke-width="2"/>
    <text x="425.0" y="79.0" font-family="Arial" font-size="14" text-anchor="middle" dominant-baseline="middle" fill="#555">W</text>
    <rect x="450" y="50" width="50" height="50" fill="#89CFF0" stroke="#333" stroke-width="2"/>
    <text x="475.0" y="79.0" font-family="Arial" font-size="14" text-anchor="middle" dominant-baseline="middle" fill="#555">W</text>
    <rect x="500" y="50" width="50" height="50" fill="#89CFF0" stroke="#333" stroke-width="2"/>
    <text x="525.0" y="79.0" font-family="Arial" font-size="14" text-anchor="middle" dominant-baseline="middle" fill="#555">W</text>
    <rect x="0" y="100" width="50" height="50" fill="#89CFF0" stroke="#333" stroke-width="2"/>
    <text x="25.0" y="129.0" font-family="Arial" font-size="14" text-anchor="middle" dominant-baseline="middle" fill="#555">W</text>
    <rect x="400" y="100" width="50" height="50" fill="#89CFF0" stroke="#333" stroke-width="2"/>
    <text x="425.0" y="129.0" font-family="Arial" font-size="14" text-anchor="middle" dominant-baseline="middle" fill="#555">W</text>
    <rect x="500" y="100" width="50" height="50" fill="#89CFF0" stroke="#333" stroke-width="2"/>
    <text x="525.0" y="129.0" font-family="Arial" font-size="14" text-anchor="middle" dominant-baseline="middle" fill="#555">W</text>
    <rect x="0" y="150" width="50" height="50" fill="#89CFF0" stroke="#333" stroke-width="2"/>
    <text x="25.0" y="179.0" font-family="Arial" font-size="14" text-anchor="middle" dominant-baseline="middle" fill="#555">W</text>
    <rect x="350" y="150" width="50" height="50" fill="#89CFF0" stroke="#333" stroke-width="2"/>
    <text x="375.0" y="179.0" font-family="Arial" font-size="14" text-anchor="middle" dominant-baseline="middle" fill="#555">W</text>
    <rect x="400" y="150" width="50" height="50" fill="#89CFF0" stroke="#333" stroke-width="2"/>
    <text x="425.0" y="179.0" font-family="Arial" font-size="14" text-anchor="middle" dominant-baseline="middle" fill="#555">W</text>
    <rect x="500" y="150" width="50" height="50" fill="#89CFF0" stroke="#333" stroke-width="2"/>
    <text x="525.0" y="179.0" font-family="Arial" font-size="14" text-anchor="middle" dominant-baseline="middle" fill="#555">W</text>
  </g>
  <g id="D-group">
    <rect x="50" y="250" width="50" height="50" fill="#8B4513" stroke="#000" stroke-width="2"/>
    <text x="75.0" y="279.0" font-family="Arial" font-size="14" text-anchor="middle" dominant-baseline="middle" fill="#555">D</text>
    <rect x="100" y="250" width="50" height="50" fill="#8B4513" stroke="#000" stroke-width="2"/>
    <text x="125.0" y="279.0" font-family="Arial" font-size="14" text-anchor="middle" dominant-baseline="middle" fill="#555">D</text>
    <rect x="400" y="250" width="50" height="50" fill="#8B4513" stroke="#000" stroke-width="2"/>
    <text x="425.0" y="279.0" font-family="Arial" font-size="14" text-anchor="middle" dominant-baseline="middle" fill="#555">D</text>
    <rect x="450" y="250" width="50" height="50" fill="#8B4513" stroke="#000" stroke-width="2"/>
    <text x="475.0" y="279.0" font-family="Arial" font-size="14" text-anchor="middle" dominant-baseline="middle" fill="#555">D</text>
  </g>
  <g id="C-group">
    <rect x="100" y="0" width="50" height="50" fill="#DC143C" stroke="#8B0000" stroke-width="2"/>
    <text x="125.0" y="29.0" font-family="Arial" font-size="14" text-anchor="middle" dominant-baseline="middle" fill="#555">C</text>
    <rect x="100" y="50" width="50" height="50" fill="#DC143C" stroke="#8B0000" stroke-width="2"/>
    <text x="125.0" y="79.0" font-family="Arial" font-size="14" text-anchor="middle" dominant-baseline="middle" fill="#555">C</text>
    <rect x="150" y="50" width="50" height="50" fill="#DC143C" stroke="#8B0000" stroke-width="2"/>
    <text x="175.0" y="79.0" font-family="Arial" font-size="14" text-anchor="middle" dominant-baseline="middle" fill="#555">C</text>
    <rect x="150" y="100" width="50" height="50" fill="#DC143C" stroke="#8B0000" stroke-width="2"/>
    <text x="175.0" y="129.0" font-family="Arial" font-size="14" text-anchor="middle" dominant-baseline="middle" fill="#555">C</text>
    <rect x="200" y="100" width="50" height="50" fill="#DC143C" stroke="#8B0000" stroke-width="2"/>
    <text x="225.0" y="129.0" font-family="Arial" font-size="14" text-anchor="middle" dominant-baseline="middle" fill="#555">C</text>
    <rect x="200" y="150" width="50" height="50" fill="#DC143C" stroke="#8B0000" stroke-width="2"/>
    <text x="225.0" y="179.0" font-family="Arial" font-size="14" text-anchor="middle" dominant-baseline="middle" fill="#555">C</text>
    <rect x="250" y="150" width="50" height="50" fill="#DC143C" stroke="#8B0000" stroke-width="2"/>
    <text x="275.0" y="179.0" font-family="Arial" font-size="14" text-anchor="middle" dominant-baseline="middle" fill="#555">C</text>
    <rect x="250" y="200" width="50" height="50" fill="#DC143C" stroke="#8B0000" stroke-width="2"/>
    <text x="275.0" y="229.0" font-family="Arial" font-size="14" text-anchor="middle" dominant-baseline="middle" fill="#555">C</text>
    <rect x="300" y="200" width="50" height="50" fill="#DC143C" stroke="#8B0000" stroke-width="2"/>
    <text x="325.0" y="229.0" font-family="Arial" font-size="14" text-anchor="middle" dominant-baseline="middle" fill="#555">C</text>
    <rect x="300" y="250" width="50" height="50" fill="#DC143C" stroke="#8B0000" stroke-width="2"/>
    <text x="325.0" y="279.0" font-family="Arial" font-size="14" text-anchor="middle" dominant-baseline="middle" fill="#555">C</text>
  </g>
</svg>