<?xml version="1.0"?>
<svg width="550" height="300" xmlns="http://www.w3.org/2000/svg">
<style>text{font:14px Arial}</style>
<g id="E">
<rect x="0" y="0" width="50" height="50" fill="#FFFFFF" stroke="#DDDDDD" stroke-width="2"/>
<text x="25" y="30" text-anchor="middle" fill="#555">E</text>
<rect x="50" y="0" width="50" height="50" fill="#FFFFFF" stroke="#DDDDDD" stroke-width="2"/>
<text x="75" y="30" text-anchor="middle" fill="#555">E</text>
<rect x="150" y="0" width="50" height="50" fill="#FFFFFF" stroke="#DDDDDD" stroke-width="2"/>
<text x="175" y="30" text-anchor="middle" fill="#555">E</text>
<rect x="200" y="0" width="50" height="50" fill="#FFFFFF" stroke="#DDDDDD" stroke-width="2"/>
<text x="225" y="30" text-anchor="middle" fill="#555">E</text>
<rect x="250" y="0" width="50" height="50" fill="#FFFFFF" stroke="#DDDDDD" stroke-width="2"/>
<text x="275" y="30" text-anchor="middle" fill="#555">E</text>
<rect x="300" y="0" width="50" height="50" fill="#FFFFFF" stroke="#DDDDDD" stroke-width="2"/>
<text x="325" y="30" text-anchor="middle" fill="#555">E</text>
<rect x="350" y="0" width="50" height="50" fill="#FFFFFF" stroke="#DDDDDD" stroke-width="2"/>
<text x="375" y="30" text-anchor="middle" fill="#555">E</text>
<rect x="400" y="0" width="50" height="50" fill="#FFFFFF" stroke="#DDDDDD" stroke-width="2"/>
<text x="425" y="30" text-anchor="middle" fill="#555">E</text>
<rect x="450" y="0" width="50" height="50" fill="#FFFFFF" stroke="#DDDDDD" stroke-width="2"/>
<text x="475" y="30" text-anchor="middle" fill="#555">E</text>
<rect x="500" y="0" width="50" height="50" fill="#FFFFFF" stroke="#DDDDDD" stroke-width="2"/>
<text x="525" y="30" text-anchor="middle" fill="#555">E</text>
<rect x="0" y="200" width="50" height="50" fill="#FFFFFF" stroke="#DDDDDD" stroke-width="2"/>
<text x="25" y="230" text-anchor="middle" fill="#555">E</text>
<rect x="500" y="200" width="50" height="50" fill="#FFFFFF" stroke="#DDDDDD" stroke-width="2"/>
<text x="525" y="230" text-anchor="middle" fill="#555">E</text>
<rect x="0" y="250" width="50" height="50" fill="#FFFFFF" stroke="#DDDDDD" stroke-width="2"/>
<text x="25" y="280" text-anchor="middle" fill="#555">E</text>
<rect x="500" y="250" width="50" height="50" fill="#FFFFFF" stroke="#DDDDDD" stroke-width="2"/>
<text x="525" y="280" text-anchor="middle" fill="#555">E</text>
</g>
<g id="W">
<rect x="0" y="50" width="50" height="50" fill="#89CFF0" stroke="#333333" stroke-width="2"/>
<text x="25" y="80" text-anchor="middle" fill="#555">W</text>
<rect x="50" y="50" width="50" height="50" fill="#89CFF0" stroke="#333333" stroke-width="2"/>
<text x="75" y="80" text-anchor="middle" fill="#555">W</text>
<rect x="200" y="50" width="50" height="50" fill="#89CFF0" stroke="#333333" stroke-width="2"/>
<text x="225" y="80" text-anchor="middle" fill="#555">W</text>
<rect x="250" y="50" width="50" height="50" fill="#89CFF0" stroke="#333333" stroke-width="2"/>
<text x="275" y="80" text-anchor="middle" fill="#555">W</text>
<rect x="300" y="50" width="50" height="50" fill="#89CFF0" stroke="#333333" stroke-width="2"/>
<text x="325" y="80" text-anchor="middle" fill="#555">W</text>
<rect x="350" y="50" width="50" height="50" fill="#89CFF0" stroke="#333333" stroke-width="2"/>
<text x="375" y="80" text-anchor="middle" fill="#555">W</text>
<rect x="400" y="50" width="50" height="50" fill="#89CFF0" stroke="#333333" stroke-width="2"/>
<text x="425" y="80" text-anchor="middle" fill="#555">W</text>
<rect x="450" y="50" width="50" height="50" fill="#89CFF0" stroke="#333333" stroke-width="2"/>
<text x="475" y="80" text-anchor="middle" fill="#555">W</text>
<rect x="500" y="50" width="50" height="50" fill="#89CFF0" stroke="#333333" stroke-width="2"/>
<text x="525" y="80" text-anchor="middle" fill="#555">W</text>
<rect x="0" y="100" width="50" height="50" fill="#89CFF0" stroke="#333333" stroke-width="2"/>
<text x="25" y="130" text-anchor="middle" fill="#555">W</text>
<rect x="400" y="100" width="50" height="50" fill="#89CFF0" stroke="#333333" stroke-width="2"/>
<text x="425" y="130" text-anchor="middle" fill="#555">W</text>
<rect x="500" y="100" width="50" height="50" fill="#89CFF0" stroke="#333333" stroke-width="2"/>
<text x="525" y="130" text-anchor="middle" fill="#555">W</text>
<rect x="0" y="150" width="50" height="50" fill="#89CFF0" stroke="#333333" stroke-width="2"/>
<text x="25" y="180" text-anchor="middle" fill="#555">W</text>
<rect x="350" y="150" width="50" height="50" fill="#89CFF0" stroke="#333333" stroke-width="2"/>
<text x="375" y="180" text-anchor="middle" fill="#555">W</text>
<rect x="400" y="150" width="50" height="50" fill="#89CFF0" stroke="#333333" stroke-width="2"/>
<text x="425" y="180" text-anchor="middle" fill="#555">W</text>
<rect x="500" y="150" width="50" height="50" fill="#89CFF0" stroke="#333333" stroke-width="2"/>
<text x="525" y="180" text-anchor="middle" fill="#555">W</text>
</g>
<g id="S">
<rect x="50" y="100" width="50" height="50" fill="#E6E6FA" stroke="#333333" stroke-width="2"/>
<text x="75" y="130" text-anchor="middle" fill="#555">S</text>
<rect x="100" y="100" width="50" height="50" fill="#E6E6FA" stroke="#333333" stroke-width="2"/>
<text x="125" y="130" text-anchor="middle" fill="#555">S</text>
<rect x="250" y="100" width="50" height="50" fill="#E6E6FA" stroke="#333333" stroke-width="2"/>
<text x="275" y="130" text-anchor="middle" fill="#555">S</text>
<rect x="300" y="100" width="50" height="50" fill="#E6E6FA" stroke="#333333" stroke-width="2"/>
<text x="325" y="130" text-anchor="middle" fill="#555">S</text>
<rect x="350" y="100" width="50" height="50" fill="#E6E6FA" stroke="#333333" stroke-width="2"/>
<text x="375" y="130" text-anchor="middle" fill="#555">S</text>
<rect x="450" y="100" width="50" height="50" fill="#E6E6FA" stroke="#333333" stroke-width="2"/>
<text x="475" y="130" text-anchor="middle" fill="#555">S</text>
<rect x="50" y="150" width="50" height="50" fill="#E6E6FA" stroke="#333333" stroke-width="2"/>
<text x="75" y="180" text-anchor="middle" fill="#555">S</text>
<rect x="100" y="150" width="50" height="50" fill="#E6E6FA" stroke="#333333" stroke-width="2"/>
<text x="125" y="180" text-anchor="middle" fill="#555">S</text>
<rect x="150" y="150" width="50" height="50" fill="#E6E6FA" stroke="#333333" stroke-width="2"/>
<text x="175" y="180" text-anchor="middle" fill="#555">S</text>
<rect x="300" y="150" width="50" height="50" fill="#E6E6FA" stroke="#333333" stroke-width="2"/>
<text x="325" y="180" text-anchor="middle" fill="#555">S</text>
<rect x="450" y="150" width="50" height="50" fill="#E6E6FA" stroke="#333333" stroke-width="2"/>
<text x="475" y="180" text-anchor="middle" fill="#555">S</text>
<rect x="50" y="200" width="50" height="50" fill="#E6E6FA" stroke="#333333" stroke-width="2"/>
<text x="75" y="230" text-anchor="middle" fill="#555">S</text>
<rect x="100" y="200" width="50" height="50" fill="#E6E6FA" stroke="#333333" stroke-width="2"/>
<text x="125" y="230" text-anchor="middle" fill="#555">S</text>
<rect x="150" y="200" width="50" height="50" fill="#E6E6FA" stroke="#333333" stroke-width="2"/>
<text x="175" y="230" text-anchor="middle" fill="#555">S</text>
<rect x="200" y="200" width="50" height="50" fill="#E6E6FA" stroke="#333333" stroke-width="2"/>
<text x="225" y="230" text-anchor="middle" fill="#555">S</text>
<rect x="350" y="200" width="50" height="50" fill="#E6E6FA" stroke="#333333" stroke-width="2"/>
<text x="375" y="230" text-anchor="middle" fill="#555">S</text>
<rect x="400" y="200" width="50" height="50" fill="#E6E6FA" stroke="#333333" stroke-width="2"/>
<text x="425" y="230" text-anchor="middle" fill="#555">S</text>
<rect x="450" y="200" width="50" height="50" fill="#E6E6FA" stroke="#333333" stroke-width="2"/>
<text x="475" y="230" text-anchor="middle" fill="#555">S</text>
<rect x="150" y="250" width="50" height="50" fill="#E6E6FA" stroke="#333333" stroke-width="2"/>
<text x="175" y="280" text-anchor="middle" fill="#555">S</text>
<rect x="200" y="250" width="50" height="50" fill="#E6E6FA" stroke="#333333" stroke-width="2"/>
<text x="225" y="280" text-anchor="middle" fill="#555">S</text>
<rect x="250" y="250" width="50" height="50" fill="#E6E6FA" stroke="#333333" stroke-width="2"/>
<text x="275" y="280" text-anchor="middle" fill="#555">S</text>
<rect x="350" y="250" width="50" height="50" fill="#E6E6FA" stroke="#333333" stroke-width="2"/>
<text x="375" y="280" text-anchor="middle" fill="#555">S</text>
</g>
<g id="D">
<rect x="50" y="250" width="50" height="50" fill="#8B4513" stroke="#000000" stroke-width="2"/>
<text x="75" y="280" text-anchor="middle" fill="#555">D</text>
<rect x="100" y="250" width="50" height="50" fill="#8B4513" stroke="#000000" stroke-width="2"/>
<text x="125" y="280" text-anchor="middle" fill="#555">D</text>
<rect x="400" y="250" width="50" height="50" fill="#8B4513" stroke="#000000" stroke-width="2"/>
<text x="425" y="280" text-anchor="middle" fill="#555">D</text>
<rect x="450" y="250" width="50" height="50" fill="#8B4513" stroke="#000000" stroke-width="2"/>
<text x="475" y="280" text-anchor="middle" fill="#555">D</text>
</g>
<g id="C">
<rect x="100" y="0" width="50" height="50" fill="#DC143C" stroke="#8B0000" stroke-width="2"/>
<text x="125" y="30" text-anchor="middle" fill="#555">C</text>
<rect x="100" y="50" width="50" height="50" fill="#DC143C" stroke="#8B0000" stroke-width="2"/>
<text x="125" y="80" text-anchor="middle" fill="#555">C</text>
<rect x="150" y="50" width="50" height="50" fill="#DC143C" stroke="#8B0000" stroke-width="2"/>
<text x="175" y="80" text-anchor="middle" fill="#555">C</text>
<rect x="150" y="100" width="50" height="50" fill="#DC143C" stroke="#8B0000" stroke-width="2"/>
<text x="175" y="130" text-anchor="middle" fill="#555">C</text>
<rect x="200" y="100" width="50" height="50" fill="#DC143C" stroke="#8B0000" stroke-width="2"/>
<text x="225" y="130" text-anchor="middle" fill="#555">C</text>
<rect x="200" y="150" width="50" height="50" fill="#DC143C" stroke="#8B0000" stroke-width="2"/>
<text x="225" y="180" text-anchor="middle" fill="#555">C</text>
<rect x="250" y="150" width="50" height="50" fill="#DC143C" stroke="#8B0000" stroke-width="2"/>
<text x="275" y="180" text-anchor="middle" fill="#555">C</text>
<rect x="250" y="200" width="50" height="50" fill="#DC143C" stroke="#8B0000" stroke-width="2"/>
<text x="275" y="230" text-anchor="middle" fill="#555">C</text>
<rect x="300" y="200" width="50" height="50" fill="#DC143C" stroke="#8B0000" stroke-width="2"/>
<text x="325" y="230" text-anchor="middle" fill="#555">C</text>
<rect x="300" y="250" width="50" height="50" fill="#DC143C" stroke="#8B0000" stroke-width="2"/>
<text x="325" y="280" text-anchor="middle" fill="#555">C</text>
</g>
</svg>